<svg xmlns="http://www.w3.org/2000/svg" xmlns:xlink="http://www.w3.org/1999/xlink" width="100" zoomAndPan="magnify" viewBox="0 0 75 74.999997" height="100" preserveAspectRatio="xMidYMid meet" version="1.0"><path fill="#f6ec48" d="M 8.148438 24.777344 C 7.558594 25.535156 6.675781 27.160156 6.09375 28.554688 C 5.867188 29.097656 5.339844 30.636719 5.199219 31.164062 C 4.90625 32.273438 4.785156 32.855469 4.632812 33.863281 C 4.273438 36.289062 4.328125 38.839844 4.789062 41.230469 C 4.988281 42.28125 5.101562 42.730469 5.410156 43.742188 C 5.632812 44.46875 5.898438 45.183594 6.246094 45.980469 C 7.171875 48.121094 8.40625 50.105469 9.921875 51.882812 C 10.761719 52.871094 12.175781 54.234375 13.179688 55.03125 C 13.285156 55.113281 13.378906 55.191406 13.386719 55.203125 C 13.480469 55.304688 14.65625 56.140625 15.226562 56.507812 C 16.660156 57.433594 17.859375 58.050781 19.632812 58.773438 C 20.109375 58.964844 21.378906 59.371094 21.410156 59.339844 C 21.433594 59.316406 21.46875 59.34375 20.636719 58.84375 C 19.871094 58.382812 18.855469 57.722656 18.335938 57.34375 C 17.472656 56.707031 17.042969 56.382812 16.632812 56.042969 C 15.507812 55.125 15.207031 54.847656 14.152344 53.796875 C 13.28125 52.925781 12.734375 52.328125 12.015625 51.464844 C 11.429688 50.757812 10.550781 49.496094 9.960938 48.511719 C 9.453125 47.667969 9.386719 47.550781 8.957031 46.6875 C 7.761719 44.28125 6.957031 41.703125 6.578125 39.039062 C 6.171875 36.1875 6.25 33.179688 6.800781 30.113281 C 6.960938 29.230469 7.1875 28.226562 7.386719 27.507812 C 7.433594 27.339844 7.484375 27.15625 7.5 27.09375 C 7.5625 26.835938 7.78125 26.140625 8.023438 25.421875 C 8.164062 25 8.277344 24.652344 8.269531 24.644531 C 8.265625 24.640625 8.210938 24.699219 8.148438 24.777344 " fill-opacity="1" fill-rule="evenodd"/><path fill="#000000" d="M 33.152344 18.375 C 32.625 18.414062 32.042969 18.460938 31.855469 18.484375 C 31.671875 18.503906 31.410156 18.53125 31.273438 18.542969 C 31.140625 18.554688 30.945312 18.582031 30.84375 18.597656 C 30.113281 18.734375 29.957031 18.761719 29.773438 18.808594 C 29.660156 18.835938 29.382812 18.902344 29.15625 18.957031 C 28.234375 19.179688 26.792969 19.632812 25.929688 19.96875 C 25.472656 20.148438 24.0625 20.824219 23.714844 21.027344 C 23.613281 21.089844 23.445312 21.1875 23.339844 21.242188 C 23.082031 21.386719 22.542969 21.714844 22.144531 21.96875 C 21.835938 22.164062 20.96875 22.78125 20.925781 22.835938 C 20.914062 22.847656 20.789062 22.949219 20.648438 23.058594 C 19.539062 23.921875 18.195312 25.285156 17.25 26.511719 C 17.09375 26.710938 16.917969 26.941406 16.851562 27.023438 C 16.375 27.621094 15.457031 29.105469 14.984375 30.042969 L 14.683594 30.632812 L 14.402344 30.695312 C 13.375 30.917969 12.558594 31.355469 11.847656 32.066406 C 11.285156 32.628906 10.894531 33.257812 10.636719 34.011719 C 10.378906 34.773438 10.382812 34.746094 10.394531 38.679688 L 10.410156 42.207031 L 10.527344 42.640625 C 10.785156 43.589844 11.238281 44.359375 11.9375 45.023438 C 12.625 45.679688 13.386719 46.089844 14.316406 46.296875 C 14.484375 46.332031 14.625 46.378906 14.625 46.394531 C 14.625 46.449219 15.277344 47.78125 15.4375 48.054688 C 15.523438 48.199219 15.636719 48.402344 15.695312 48.507812 C 15.933594 48.9375 16.640625 50 17.058594 50.550781 C 17.9375 51.714844 19.132812 53.035156 19.859375 53.644531 C 20.089844 53.839844 20.316406 54.042969 20.367188 54.101562 C 20.617188 54.390625 21.882812 55.328125 22.949219 56.011719 C 24.160156 56.789062 25.792969 57.589844 27.09375 58.046875 C 27.28125 58.113281 28.230469 58.40625 28.480469 58.472656 C 28.523438 58.484375 28.648438 58.523438 28.761719 58.554688 C 30.1875 58.96875 31.023438 59.113281 32.828125 59.261719 C 32.925781 59.269531 32.941406 59.289062 33 59.511719 C 33.125 59.984375 33.398438 60.371094 33.851562 60.714844 C 34.46875 61.179688 35.1875 61.402344 36.09375 61.402344 C 36.792969 61.402344 37.269531 61.296875 37.820312 61.03125 C 38.597656 60.648438 39.113281 60.027344 39.230469 59.320312 C 39.425781 58.121094 38.300781 56.984375 36.695312 56.753906 C 36.222656 56.6875 35.964844 56.6875 35.492188 56.753906 C 34.652344 56.875 33.914062 57.246094 33.4375 57.792969 C 33.25 58.007812 33.0625 58.339844 33.019531 58.53125 L 32.992188 58.65625 L 32.78125 58.632812 C 32.664062 58.621094 32.441406 58.585938 32.289062 58.558594 C 32.132812 58.53125 31.828125 58.480469 31.613281 58.441406 C 31.132812 58.363281 30.382812 58.175781 29.851562 58 C 29.285156 57.8125 27.703125 57.21875 27.394531 57.074219 C 25.953125 56.417969 24.878906 55.773438 23.585938 54.804688 C 23.308594 54.59375 22.996094 54.351562 22.894531 54.265625 C 22.707031 54.105469 22.519531 53.945312 22.117188 53.601562 C 22 53.5 21.789062 53.292969 21.648438 53.144531 C 21.507812 52.992188 21.199219 52.667969 20.960938 52.429688 C 20.324219 51.78125 19.058594 50.078125 18.421875 49.011719 C 17.917969 48.160156 17.34375 47.007812 17.125 46.394531 L 17.027344 46.132812 L 17.351562 45.992188 C 18.875 45.339844 19.980469 43.945312 20.296875 42.269531 C 20.332031 42.078125 20.34375 41.191406 20.34375 38.476562 C 20.34375 35.1875 20.339844 34.910156 20.277344 34.632812 C 19.964844 33.265625 19.269531 32.21875 18.160156 31.449219 C 18.050781 31.375 17.949219 31.3125 17.933594 31.3125 C 17.917969 31.3125 17.875 31.285156 17.835938 31.257812 C 17.769531 31.207031 17.78125 31.175781 18.074219 30.613281 C 18.851562 29.125 19.996094 27.464844 20.960938 26.433594 C 22.355469 24.949219 23.355469 24.101562 25.03125 22.988281 C 26.011719 22.335938 26.820312 21.902344 27.957031 21.421875 C 30.246094 20.449219 31.339844 20.164062 34.144531 19.8125 C 34.910156 19.714844 37.734375 19.714844 38.492188 19.808594 C 40.265625 20.03125 41.34375 20.265625 42.789062 20.738281 C 44.71875 21.367188 47.03125 22.554688 48.417969 23.632812 C 48.570312 23.75 48.863281 23.96875 49.070312 24.125 C 49.796875 24.667969 50.949219 25.753906 51.675781 26.585938 C 51.832031 26.761719 51.964844 26.914062 51.976562 26.925781 C 52.078125 27.027344 52.90625 28.105469 53.125 28.421875 C 53.132812 28.429688 53.148438 28.429688 53.15625 28.417969 C 53.207031 28.371094 52.152344 26.863281 51.589844 26.175781 C 50.976562 25.429688 49.984375 24.386719 49.386719 23.871094 C 49.210938 23.71875 48.941406 23.480469 48.789062 23.34375 C 48.375 22.984375 47.566406 22.375 46.988281 21.988281 C 44.71875 20.472656 42.203125 19.394531 39.667969 18.847656 C 38.230469 18.539062 37.433594 18.433594 35.894531 18.355469 C 34.582031 18.289062 34.386719 18.289062 33.152344 18.375 M 44.164062 30.210938 C 44.148438 30.226562 44.136719 34.671875 44.136719 40.09375 L 44.136719 49.949219 L 50.363281 49.949219 L 50.367188 45.328125 L 50.367188 40.707031 L 50.449219 40.875 C 50.496094 40.96875 50.585938 41.164062 50.648438 41.308594 C 50.714844 41.453125 50.863281 41.78125 50.980469 42.039062 C 51.097656 42.296875 51.261719 42.65625 51.347656 42.84375 C 51.429688 43.03125 51.542969 43.28125 51.601562 43.40625 C 51.65625 43.53125 51.792969 43.824219 51.898438 44.0625 C 52.007812 44.300781 52.152344 44.617188 52.222656 44.765625 C 52.292969 44.917969 52.351562 45.046875 52.351562 45.054688 C 52.351562 45.0625 52.425781 45.230469 52.519531 45.429688 C 52.613281 45.628906 52.6875 45.796875 52.6875 45.804688 C 52.6875 45.8125 52.753906 45.957031 52.832031 46.128906 C 52.914062 46.304688 53.140625 46.804688 53.34375 47.25 C 53.542969 47.695312 53.746094 48.140625 53.792969 48.242188 C 53.839844 48.347656 53.96875 48.625 54.074219 48.863281 C 54.179688 49.101562 54.320312 49.402344 54.382812 49.539062 C 54.445312 49.671875 54.511719 49.820312 54.527344 49.867188 L 54.5625 49.949219 L 56.273438 49.941406 L 57.984375 49.929688 L 58.167969 49.519531 C 58.273438 49.292969 58.414062 48.980469 58.484375 48.832031 C 58.554688 48.679688 58.613281 48.550781 58.613281 48.542969 C 58.613281 48.535156 58.6875 48.367188 58.78125 48.171875 C 58.875 47.972656 58.949219 47.804688 58.949219 47.796875 C 58.949219 47.785156 59.007812 47.65625 59.078125 47.503906 C 59.148438 47.355469 59.292969 47.039062 59.402344 46.800781 C 59.507812 46.5625 59.632812 46.285156 59.683594 46.179688 C 59.730469 46.078125 59.933594 45.632812 60.132812 45.1875 C 60.332031 44.742188 60.5625 44.242188 60.640625 44.066406 C 60.722656 43.894531 60.789062 43.75 60.789062 43.742188 C 60.789062 43.734375 60.863281 43.566406 60.957031 43.367188 C 61.050781 43.167969 61.125 43 61.125 42.992188 C 61.125 42.984375 61.183594 42.855469 61.253906 42.703125 C 61.324219 42.554688 61.46875 42.238281 61.574219 42 C 61.917969 41.246094 62.023438 41.011719 62.097656 40.855469 C 62.167969 40.707031 62.171875 40.742188 62.171875 45.328125 L 62.175781 49.949219 L 68.398438 49.949219 L 68.398438 30.1875 L 61.929688 30.1875 L 61.773438 30.535156 C 61.6875 30.726562 61.519531 31.09375 61.40625 31.351562 C 61.289062 31.609375 61.15625 31.902344 61.105469 32.007812 C 61.058594 32.109375 60.855469 32.554688 60.65625 33 C 60.457031 33.445312 60.207031 33.992188 60.105469 34.21875 C 59.761719 34.972656 59.730469 35.042969 59.542969 35.457031 C 59.441406 35.683594 59.292969 36.011719 59.210938 36.1875 C 58.867188 36.953125 58.671875 37.382812 58.59375 37.554688 C 58.546875 37.660156 58.335938 38.125 58.125 38.585938 C 57.914062 39.050781 57.699219 39.523438 57.648438 39.636719 C 57.464844 40.042969 57.179688 40.675781 57.039062 40.988281 C 56.855469 41.394531 56.496094 42.179688 56.371094 42.460938 L 56.273438 42.675781 L 56.171875 42.460938 C 56.042969 42.179688 55.78125 41.609375 55.351562 40.648438 C 55.160156 40.226562 54.867188 39.585938 54.703125 39.226562 C 54.539062 38.863281 54.335938 38.417969 54.253906 38.230469 C 54.171875 38.046875 54.035156 37.753906 53.957031 37.582031 C 53.878906 37.410156 53.8125 37.265625 53.8125 37.257812 C 53.8125 37.25 53.753906 37.121094 53.683594 36.96875 C 53.613281 36.816406 53.386719 36.3125 53.175781 35.851562 C 52.660156 34.710938 52.472656 34.296875 52.351562 34.03125 C 52.292969 33.90625 52.175781 33.644531 52.085938 33.449219 C 52 33.253906 51.863281 32.953125 51.78125 32.78125 C 51.703125 32.609375 51.636719 32.464844 51.636719 32.457031 C 51.636719 32.449219 51.5625 32.285156 51.476562 32.09375 C 51.386719 31.902344 51.15625 31.394531 50.960938 30.964844 L 50.609375 30.1875 L 47.398438 30.1875 C 45.632812 30.1875 44.175781 30.199219 44.164062 30.210938 " fill-opacity="1" fill-rule="evenodd"/><path fill="#ff0000" d="M 27.054688 11.195312 C 26.441406 11.238281 26.234375 11.261719 25.460938 11.386719 C 22.527344 11.855469 19.667969 12.984375 17.136719 14.675781 C 15.902344 15.503906 15.015625 16.238281 13.882812 17.382812 C 11.882812 19.398438 10.367188 21.671875 9.246094 24.335938 C 8.949219 25.035156 8.898438 25.171875 8.609375 26.042969 C 8.378906 26.734375 8.316406 26.933594 8.121094 27.65625 C 7.796875 28.851562 7.53125 30.398438 7.378906 31.949219 C 7.3125 32.640625 7.3125 35.664062 7.378906 36.28125 C 7.433594 36.789062 7.523438 37.417969 7.582031 37.726562 C 7.617188 37.90625 7.628906 37.917969 7.652344 37.832031 C 7.667969 37.777344 7.691406 37.574219 7.703125 37.382812 C 7.753906 36.714844 7.902344 35.519531 8.066406 34.5 C 8.980469 28.839844 10.929688 24.046875 13.816406 20.363281 C 15.445312 18.28125 17.421875 16.46875 19.632812 15.019531 C 22.125 13.390625 25.117188 12.113281 28.332031 11.304688 C 28.558594 11.25 28.761719 11.1875 28.78125 11.171875 C 28.828125 11.125 27.820312 11.136719 27.054688 11.195312 " fill-opacity="1" fill-rule="evenodd"/><path fill="#000000" d="M 33.152344 18.375 C 32.625 18.414062 32.042969 18.460938 31.855469 18.484375 C 31.671875 18.503906 31.410156 18.53125 31.273438 18.542969 C 31.140625 18.554688 30.945312 18.582031 30.84375 18.597656 C 30.113281 18.734375 29.957031 18.761719 29.773438 18.808594 C 29.660156 18.835938 29.382812 18.902344 29.15625 18.957031 C 28.234375 19.179688 26.792969 19.632812 25.929688 19.96875 C 25.472656 20.148438 24.0625 20.824219 23.714844 21.027344 C 23.613281 21.089844 23.445312 21.1875 23.339844 21.242188 C 23.082031 21.386719 22.542969 21.714844 22.144531 21.96875 C 21.835938 22.164062 20.96875 22.78125 20.925781 22.835938 C 20.914062 22.847656 20.789062 22.949219 20.648438 23.058594 C 19.539062 23.921875 18.195312 25.285156 17.25 26.511719 C 17.09375 26.710938 16.917969 26.941406 16.851562 27.023438 C 16.375 27.621094 15.457031 29.105469 14.984375 30.042969 L 14.683594 30.632812 L 14.402344 30.695312 C 13.375 30.917969 12.558594 31.355469 11.847656 32.066406 C 11.285156 32.628906 10.894531 33.257812 10.636719 34.011719 C 10.378906 34.773438 10.382812 34.746094 10.394531 38.679688 L 10.410156 42.207031 L 10.527344 42.640625 C 10.785156 43.589844 11.238281 44.359375 11.9375 45.023438 C 12.625 45.679688 13.386719 46.089844 14.316406 46.296875 C 14.484375 46.332031 14.625 46.378906 14.625 46.394531 C 14.625 46.449219 15.277344 47.78125 15.4375 48.054688 C 15.523438 48.199219 15.636719 48.402344 15.695312 48.507812 C 15.933594 48.9375 16.640625 50 17.058594 50.550781 C 17.9375 51.714844 19.132812 53.035156 19.859375 53.644531 C 20.089844 53.839844 20.316406 54.042969 20.367188 54.101562 C 20.617188 54.390625 21.882812 55.328125 22.949219 56.011719 C 24.160156 56.789062 25.792969 57.589844 27.09375 58.046875 C 27.28125 58.113281 28.230469 58.40625 28.480469 58.472656 C 28.523438 58.484375 28.648438 58.523438 28.761719 58.554688 C 30.1875 58.96875 31.023438 59.113281 32.828125 59.261719 C 32.925781 59.269531 32.941406 59.289062 33 59.511719 C 33.125 59.984375 33.398438 60.371094 33.851562 60.714844 C 34.46875 61.179688 35.1875 61.402344 36.09375 61.402344 C 36.792969 61.402344 37.269531 61.296875 37.820312 61.03125 C 38.597656 60.648438 39.113281 60.027344 39.230469 59.320312 C 39.425781 58.121094 38.300781 56.984375 36.695312 56.753906 C 36.222656 56.6875 35.964844 56.6875 35.492188 56.753906 C 34.652344 56.875 33.914062 57.246094 33.4375 57.792969 C 33.25 58.007812 33.0625 58.339844 33.019531 58.53125 L 32.992188 58.65625 L 32.78125 58.632812 C 32.664062 58.621094 32.441406 58.585938 32.289062 58.558594 C 32.132812 58.53125 31.828125 58.480469 31.613281 58.441406 C 31.132812 58.363281 30.382812 58.175781 29.851562 58 C 29.285156 57.8125 27.703125 57.21875 27.394531 57.074219 C 25.953125 56.417969 24.878906 55.773438 23.585938 54.804688 C 23.308594 54.59375 22.996094 54.351562 22.894531 54.265625 C 22.707031 54.105469 22.519531 53.945312 22.117188 53.601562 C 22 53.5 21.789062 53.292969 21.648438 53.144531 C 21.507812 52.992188 21.199219 52.667969 20.960938 52.429688 C 20.324219 51.78125 19.058594 50.078125 18.421875 49.011719 C 17.917969 48.160156 17.34375 47.007812 17.125 46.394531 L 17.027344 46.132812 L 17.351562 45.992188 C 18.875 45.339844 19.980469 43.945312 20.296875 42.269531 C 20.332031 42.078125 20.34375 41.191406 20.34375 38.476562 C 20.34375 35.1875 20.339844 34.910156 20.277344 34.632812 C 19.964844 33.265625 19.269531 32.21875 18.160156 31.449219 C 18.050781 31.375 17.949219 31.3125 17.933594 31.3125 C 17.917969 31.3125 17.875 31.285156 17.835938 31.257812 C 17.769531 31.207031 17.78125 31.175781 18.074219 30.613281 C 18.851562 29.125 19.996094 27.464844 20.960938 26.433594 C 22.355469 24.949219 23.355469 24.101562 25.03125 22.988281 C 26.011719 22.335938 26.820312 21.902344 27.957031 21.421875 C 30.246094 20.449219 31.339844 20.164062 34.144531 19.8125 C 34.910156 19.714844 37.734375 19.714844 38.492188 19.808594 C 40.265625 20.03125 41.34375 20.265625 42.789062 20.738281 C 44.71875 21.367188 47.03125 22.554688 48.417969 23.632812 C 48.570312 23.75 48.863281 23.96875 49.070312 24.125 C 49.796875 24.667969 50.949219 25.753906 51.675781 26.585938 C 51.832031 26.761719 51.964844 26.914062 51.976562 26.925781 C 52.078125 27.027344 52.90625 28.105469 53.125 28.421875 C 53.132812 28.429688 53.148438 28.429688 53.15625 28.417969 C 53.207031 28.371094 52.152344 26.863281 51.589844 26.175781 C 50.976562 25.429688 49.984375 24.386719 49.386719 23.871094 C 49.210938 23.71875 48.941406 23.480469 48.789062 23.34375 C 48.375 22.984375 47.566406 22.375 46.988281 21.988281 C 44.71875 20.472656 42.203125 19.394531 39.667969 18.847656 C 38.230469 18.539062 37.433594 18.433594 35.894531 18.355469 C 34.582031 18.289062 34.386719 18.289062 33.152344 18.375 M 44.164062 30.210938 C 44.148438 30.226562 44.136719 34.671875 44.136719 40.09375 L 44.136719 49.949219 L 50.363281 49.949219 L 50.367188 45.328125 L 50.367188 40.707031 L 50.449219 40.875 C 50.496094 40.96875 50.585938 41.164062 50.648438 41.308594 C 50.714844 41.453125 50.863281 41.78125 50.980469 42.039062 C 51.097656 42.296875 51.261719 42.65625 51.347656 42.84375 C 51.429688 43.03125 51.542969 43.28125 51.601562 43.40625 C 51.65625 43.53125 51.792969 43.824219 51.898438 44.0625 C 52.007812 44.300781 52.152344 44.617188 52.222656 44.765625 C 52.292969 44.917969 52.351562 45.046875 52.351562 45.054688 C 52.351562 45.0625 52.425781 45.230469 52.519531 45.429688 C 52.613281 45.628906 52.6875 45.796875 52.6875 45.804688 C 52.6875 45.8125 52.753906 45.957031 52.832031 46.128906 C 52.914062 46.304688 53.140625 46.804688 53.34375 47.25 C 53.542969 47.695312 53.746094 48.140625 53.792969 48.242188 C 53.839844 48.347656 53.96875 48.625 54.074219 48.863281 C 54.179688 49.101562 54.320312 49.402344 54.382812 49.539062 C 54.445312 49.671875 54.511719 49.820312 54.527344 49.867188 L 54.5625 49.949219 L 56.273438 49.941406 L 57.984375 49.929688 L 58.167969 49.519531 C 58.273438 49.292969 58.414062 48.980469 58.484375 48.832031 C 58.554688 48.679688 58.613281 48.550781 58.613281 48.542969 C 58.613281 48.535156 58.6875 48.367188 58.78125 48.171875 C 58.875 47.972656 58.949219 47.804688 58.949219 47.796875 C 58.949219 47.785156 59.007812 47.65625 59.078125 47.503906 C 59.148438 47.355469 59.292969 47.039062 59.402344 46.800781 C 59.507812 46.5625 59.632812 46.285156 59.683594 46.179688 C 59.730469 46.078125 59.933594 45.632812 60.132812 45.1875 C 60.332031 44.742188 60.5625 44.242188 60.640625 44.066406 C 60.722656 43.894531 60.789062 43.75 60.789062 43.742188 C 60.789062 43.734375 60.863281 43.566406 60.957031 43.367188 C 61.050781 43.167969 61.125 43 61.125 42.992188 C 61.125 42.984375 61.183594 42.855469 61.253906 42.703125 C 61.324219 42.554688 61.46875 42.238281 61.574219 42 C 61.917969 41.246094 62.023438 41.011719 62.097656 40.855469 C 62.167969 40.707031 62.171875 40.742188 62.171875 45.328125 L 62.175781 49.949219 L 68.398438 49.949219 L 68.398438 30.1875 L 61.929688 30.1875 L 61.773438 30.535156 C 61.6875 30.726562 61.519531 31.09375 61.40625 31.351562 C 61.289062 31.609375 61.15625 31.902344 61.105469 32.007812 C 61.058594 32.109375 60.855469 32.554688 60.65625 33 C 60.457031 33.445312 60.207031 33.992188 60.105469 34.21875 C 59.761719 34.972656 59.730469 35.042969 59.542969 35.457031 C 59.441406 35.683594 59.292969 36.011719 59.210938 36.1875 C 58.867188 36.953125 58.671875 37.382812 58.59375 37.554688 C 58.546875 37.660156 58.335938 38.125 58.125 38.585938 C 57.914062 39.050781 57.699219 39.523438 57.648438 39.636719 C 57.464844 40.042969 57.179688 40.675781 57.039062 40.988281 C 56.855469 41.394531 56.496094 42.179688 56.371094 42.460938 L 56.273438 42.675781 L 56.171875 42.460938 C 56.042969 42.179688 55.78125 41.609375 55.351562 40.648438 C 55.160156 40.226562 54.867188 39.585938 54.703125 39.226562 C 54.539062 38.863281 54.335938 38.417969 54.253906 38.230469 C 54.171875 38.046875 54.035156 37.753906 53.957031 37.582031 C 53.878906 37.410156 53.8125 37.265625 53.8125 37.257812 C 53.8125 37.25 53.753906 37.121094 53.683594 36.96875 C 53.613281 36.816406 53.386719 36.3125 53.175781 35.851562 C 52.660156 34.710938 52.472656 34.296875 52.351562 34.03125 C 52.292969 33.90625 52.175781 33.644531 52.085938 33.449219 C 52 33.253906 51.863281 32.953125 51.78125 32.78125 C 51.703125 32.609375 51.636719 32.464844 51.636719 32.457031 C 51.636719 32.449219 51.5625 32.285156 51.476562 32.09375 C 51.386719 31.902344 51.15625 31.394531 50.960938 30.964844 L 50.609375 30.1875 L 47.398438 30.1875 C 45.632812 30.1875 44.175781 30.199219 44.164062 30.210938 " fill-opacity="1" fill-rule="evenodd"/><path fill="#29abe2" d="M 32.230469 12.734375 C 32.148438 12.742188 31.820312 12.765625 31.5 12.789062 C 30.519531 12.855469 29.507812 13.003906 28.554688 13.21875 C 28.078125 13.328125 27.652344 13.429688 27.5625 13.460938 C 27.511719 13.476562 27.332031 13.527344 27.167969 13.574219 C 26.367188 13.796875 25.03125 14.28125 24.226562 14.644531 C 23.742188 14.859375 22.546875 15.457031 22.359375 15.574219 C 22.28125 15.625 22.117188 15.71875 21.992188 15.789062 C 21.449219 16.089844 20.355469 16.8125 19.71875 17.292969 C 19.3125 17.597656 18.691406 18.089844 18.636719 18.152344 C 18.628906 18.164062 18.441406 18.324219 18.226562 18.507812 C 17.589844 19.054688 16.558594 20.085938 15.992188 20.75 C 15.890625 20.871094 15.78125 21 15.746094 21.03125 C 15.636719 21.148438 15.085938 21.84375 14.769531 22.273438 C 13.058594 24.59375 11.742188 27.273438 11.03125 29.886719 C 10.828125 30.636719 10.828125 30.636719 10.882812 30.636719 C 10.910156 30.636719 11.015625 30.472656 11.117188 30.273438 C 11.285156 29.949219 11.699219 29.183594 11.953125 28.726562 C 12.410156 27.898438 13.507812 26.222656 14.140625 25.382812 C 14.492188 24.914062 15.492188 23.707031 15.839844 23.324219 C 16.183594 22.949219 17.5625 21.582031 17.925781 21.257812 C 21.289062 18.242188 25.332031 16.171875 29.492188 15.335938 C 33.347656 14.5625 37.136719 14.75 41.082031 15.914062 C 43.375 16.589844 45.628906 17.582031 48.074219 18.992188 C 48.351562 19.152344 48.601562 19.300781 48.628906 19.324219 C 48.65625 19.34375 48.683594 19.355469 48.691406 19.34375 C 48.742188 19.296875 47.738281 18.347656 46.933594 17.679688 C 46.398438 17.238281 45.335938 16.484375 44.558594 16 C 43.578125 15.382812 41.660156 14.433594 40.875 14.175781 C 40.824219 14.15625 40.6875 14.105469 40.574219 14.0625 C 40.132812 13.894531 39.472656 13.679688 38.644531 13.445312 C 37.648438 13.164062 36.203125 12.910156 34.875 12.785156 C 34.441406 12.746094 32.511719 12.707031 32.230469 12.734375 " fill-opacity="1" fill-rule="evenodd"/><path fill="#000000" d="M 33.152344 18.375 C 32.625 18.414062 32.042969 18.460938 31.855469 18.484375 C 31.671875 18.503906 31.410156 18.53125 31.273438 18.542969 C 31.140625 18.554688 30.945312 18.582031 30.84375 18.597656 C 30.113281 18.734375 29.957031 18.761719 29.773438 18.808594 C 29.660156 18.835938 29.382812 18.902344 29.15625 18.957031 C 28.234375 19.179688 26.792969 19.632812 25.929688 19.96875 C 25.472656 20.148438 24.0625 20.824219 23.714844 21.027344 C 23.613281 21.089844 23.445312 21.1875 23.339844 21.242188 C 23.082031 21.386719 22.542969 21.714844 22.144531 21.96875 C 21.835938 22.164062 20.96875 22.78125 20.925781 22.835938 C 20.914062 22.847656 20.789062 22.949219 20.648438 23.058594 C 19.539062 23.921875 18.195312 25.285156 17.25 26.511719 C 17.09375 26.710938 16.917969 26.941406 16.851562 27.023438 C 16.375 27.621094 15.457031 29.105469 14.984375 30.042969 L 14.683594 30.632812 L 14.402344 30.695312 C 13.375 30.917969 12.558594 31.355469 11.847656 32.066406 C 11.285156 32.628906 10.894531 33.257812 10.636719 34.011719 C 10.378906 34.773438 10.382812 34.746094 10.394531 38.679688 L 10.410156 42.207031 L 10.527344 42.640625 C 10.785156 43.589844 11.238281 44.359375 11.9375 45.023438 C 12.625 45.679688 13.386719 46.089844 14.316406 46.296875 C 14.484375 46.332031 14.625 46.378906 14.625 46.394531 C 14.625 46.449219 15.277344 47.78125 15.4375 48.054688 C 15.523438 48.199219 15.636719 48.402344 15.695312 48.507812 C 15.933594 48.9375 16.640625 50 17.058594 50.550781 C 17.9375 51.714844 19.132812 53.035156 19.859375 53.644531 C 20.089844 53.839844 20.316406 54.042969 20.367188 54.101562 C 20.617188 54.390625 21.882812 55.328125 22.949219 56.011719 C 24.160156 56.789062 25.792969 57.589844 27.09375 58.046875 C 27.28125 58.113281 28.230469 58.40625 28.480469 58.472656 C 28.523438 58.484375 28.648438 58.523438 28.761719 58.554688 C 30.1875 58.96875 31.023438 59.113281 32.828125 59.261719 C 32.925781 59.269531 32.941406 59.289062 33 59.511719 C 33.125 59.984375 33.398438 60.371094 33.851562 60.714844 C 34.46875 61.179688 35.1875 61.402344 36.09375 61.402344 C 36.792969 61.402344 37.269531 61.296875 37.820312 61.03125 C 38.597656 60.648438 39.113281 60.027344 39.230469 59.320312 C 39.425781 58.121094 38.300781 56.984375 36.695312 56.753906 C 36.222656 56.6875 35.964844 56.6875 35.492188 56.753906 C 34.652344 56.875 33.914062 57.246094 33.4375 57.792969 C 33.25 58.007812 33.0625 58.339844 33.019531 58.53125 L 32.992188 58.65625 L 32.78125 58.632812 C 32.664062 58.621094 32.441406 58.585938 32.289062 58.558594 C 32.132812 58.53125 31.828125 58.480469 31.613281 58.441406 C 31.132812 58.363281 30.382812 58.175781 29.851562 58 C 29.285156 57.8125 27.703125 57.21875 27.394531 57.074219 C 25.953125 56.417969 24.878906 55.773438 23.585938 54.804688 C 23.308594 54.59375 22.996094 54.351562 22.894531 54.265625 C 22.707031 54.105469 22.519531 53.945312 22.117188 53.601562 C 22 53.5 21.789062 53.292969 21.648438 53.144531 C 21.507812 52.992188 21.199219 52.667969 20.960938 52.429688 C 20.324219 51.78125 19.058594 50.078125 18.421875 49.011719 C 17.917969 48.160156 17.34375 47.007812 17.125 46.394531 L 17.027344 46.132812 L 17.351562 45.992188 C 18.875 45.339844 19.980469 43.945312 20.296875 42.269531 C 20.332031 42.078125 20.34375 41.191406 20.34375 38.476562 C 20.34375 35.1875 20.339844 34.910156 20.277344 34.632812 C 19.964844 33.265625 19.269531 32.21875 18.160156 31.449219 C 18.050781 31.375 17.949219 31.3125 17.933594 31.3125 C 17.917969 31.3125 17.875 31.285156 17.835938 31.257812 C 17.769531 31.207031 17.78125 31.175781 18.074219 30.613281 C 18.851562 29.125 19.996094 27.464844 20.960938 26.433594 C 22.355469 24.949219 23.355469 24.101562 25.03125 22.988281 C 26.011719 22.335938 26.820312 21.902344 27.957031 21.421875 C 30.246094 20.449219 31.339844 20.164062 34.144531 19.8125 C 34.910156 19.714844 37.734375 19.714844 38.492188 19.808594 C 40.265625 20.03125 41.34375 20.265625 42.789062 20.738281 C 44.71875 21.367188 47.03125 22.554688 48.417969 23.632812 C 48.570312 23.75 48.863281 23.96875 49.070312 24.125 C 49.796875 24.667969 50.949219 25.753906 51.675781 26.585938 C 51.832031 26.761719 51.964844 26.914062 51.976562 26.925781 C 52.078125 27.027344 52.90625 28.105469 53.125 28.421875 C 53.132812 28.429688 53.148438 28.429688 53.15625 28.417969 C 53.207031 28.371094 52.152344 26.863281 51.589844 26.175781 C 50.976562 25.429688 49.984375 24.386719 49.386719 23.871094 C 49.210938 23.71875 48.941406 23.480469 48.789062 23.34375 C 48.375 22.984375 47.566406 22.375 46.988281 21.988281 C 44.71875 20.472656 42.203125 19.394531 39.667969 18.847656 C 38.230469 18.539062 37.433594 18.433594 35.894531 18.355469 C 34.582031 18.289062 34.386719 18.289062 33.152344 18.375 M 44.164062 30.210938 C 44.148438 30.226562 44.136719 34.671875 44.136719 40.09375 L 44.136719 49.949219 L 50.363281 49.949219 L 50.367188 45.328125 L 50.367188 40.707031 L 50.449219 40.875 C 50.496094 40.96875 50.585938 41.164062 50.648438 41.308594 C 50.714844 41.453125 50.863281 41.78125 50.980469 42.039062 C 51.097656 42.296875 51.261719 42.65625 51.347656 42.84375 C 51.429688 43.03125 51.542969 43.28125 51.601562 43.40625 C 51.65625 43.53125 51.792969 43.824219 51.898438 44.0625 C 52.007812 44.300781 52.152344 44.617188 52.222656 44.765625 C 52.292969 44.917969 52.351562 45.046875 52.351562 45.054688 C 52.351562 45.0625 52.425781 45.230469 52.519531 45.429688 C 52.613281 45.628906 52.6875 45.796875 52.6875 45.804688 C 52.6875 45.8125 52.753906 45.957031 52.832031 46.128906 C 52.914062 46.304688 53.140625 46.804688 53.34375 47.25 C 53.542969 47.695312 53.746094 48.140625 53.792969 48.242188 C 53.839844 48.347656 53.96875 48.625 54.074219 48.863281 C 54.179688 49.101562 54.320312 49.402344 54.382812 49.539062 C 54.445312 49.671875 54.511719 49.820312 54.527344 49.867188 L 54.5625 49.949219 L 56.273438 49.941406 L 57.984375 49.929688 L 58.167969 49.519531 C 58.273438 49.292969 58.414062 48.980469 58.484375 48.832031 C 58.554688 48.679688 58.613281 48.550781 58.613281 48.542969 C 58.613281 48.535156 58.6875 48.367188 58.78125 48.171875 C 58.875 47.972656 58.949219 47.804688 58.949219 47.796875 C 58.949219 47.785156 59.007812 47.65625 59.078125 47.503906 C 59.148438 47.355469 59.292969 47.039062 59.402344 46.800781 C 59.507812 46.5625 59.632812 46.285156 59.683594 46.179688 C 59.730469 46.078125 59.933594 45.632812 60.132812 45.1875 C 60.332031 44.742188 60.5625 44.242188 60.640625 44.066406 C 60.722656 43.894531 60.789062 43.75 60.789062 43.742188 C 60.789062 43.734375 60.863281 43.566406 60.957031 43.367188 C 61.050781 43.167969 61.125 43 61.125 42.992188 C 61.125 42.984375 61.183594 42.855469 61.253906 42.703125 C 61.324219 42.554688 61.46875 42.238281 61.574219 42 C 61.917969 41.246094 62.023438 41.011719 62.097656 40.855469 C 62.167969 40.707031 62.171875 40.742188 62.171875 45.328125 L 62.175781 49.949219 L 68.398438 49.949219 L 68.398438 30.1875 L 61.929688 30.1875 L 61.773438 30.535156 C 61.6875 30.726562 61.519531 31.09375 61.40625 31.351562 C 61.289062 31.609375 61.15625 31.902344 61.105469 32.007812 C 61.058594 32.109375 60.855469 32.554688 60.65625 33 C 60.457031 33.445312 60.207031 33.992188 60.105469 34.21875 C 59.761719 34.972656 59.730469 35.042969 59.542969 35.457031 C 59.441406 35.683594 59.292969 36.011719 59.210938 36.1875 C 58.867188 36.953125 58.671875 37.382812 58.59375 37.554688 C 58.546875 37.660156 58.335938 38.125 58.125 38.585938 C 57.914062 39.050781 57.699219 39.523438 57.648438 39.636719 C 57.464844 40.042969 57.179688 40.675781 57.039062 40.988281 C 56.855469 41.394531 56.496094 42.179688 56.371094 42.460938 L 56.273438 42.675781 L 56.171875 42.460938 C 56.042969 42.179688 55.78125 41.609375 55.351562 40.648438 C 55.160156 40.226562 54.867188 39.585938 54.703125 39.226562 C 54.539062 38.863281 54.335938 38.417969 54.253906 38.230469 C 54.171875 38.046875 54.035156 37.753906 53.957031 37.582031 C 53.878906 37.410156 53.8125 37.265625 53.8125 37.257812 C 53.8125 37.25 53.753906 37.121094 53.683594 36.96875 C 53.613281 36.816406 53.386719 36.3125 53.175781 35.851562 C 52.660156 34.710938 52.472656 34.296875 52.351562 34.03125 C 52.292969 33.90625 52.175781 33.644531 52.085938 33.449219 C 52 33.253906 51.863281 32.953125 51.78125 32.78125 C 51.703125 32.609375 51.636719 32.464844 51.636719 32.457031 C 51.636719 32.449219 51.5625 32.285156 51.476562 32.09375 C 51.386719 31.902344 51.15625 31.394531 50.960938 30.964844 L 50.609375 30.1875 L 47.398438 30.1875 C 45.632812 30.1875 44.175781 30.199219 44.164062 30.210938 " fill-opacity="1" fill-rule="evenodd"/><path fill="#faa837" d="M 22.199219 40.070312 L 22.199219 49.953125 L 39.019531 49.929688 L 39.394531 49.828125 C 41.054688 49.386719 42.257812 48.257812 42.800781 46.640625 C 43 46.039062 43.03125 45.761719 43.03125 44.457031 C 43.03125 43.140625 43.003906 42.902344 42.789062 42.226562 C 42.449219 41.171875 41.613281 40.121094 40.699219 39.597656 L 40.542969 39.507812 L 40.6875 39.339844 C 41.222656 38.695312 41.605469 37.824219 41.734375 36.949219 C 41.800781 36.515625 41.785156 34.621094 41.714844 34.21875 C 41.484375 32.875 40.753906 31.734375 39.667969 31.003906 C 39.050781 30.589844 38.527344 30.378906 37.800781 30.257812 C 37.386719 30.191406 37.082031 30.1875 29.785156 30.1875 L 22.199219 30.1875 L 22.199219 40.070312 M 28.425781 36.300781 L 28.425781 37.765625 L 34.707031 37.742188 L 34.859375 37.660156 C 35.367188 37.390625 35.574219 36.949219 35.542969 36.199219 C 35.519531 35.667969 35.429688 35.417969 35.160156 35.152344 C 34.816406 34.820312 35.03125 34.835938 31.511719 34.835938 L 28.425781 34.835938 L 28.425781 36.300781 M 28.425781 43.835938 L 28.425781 45.300781 L 32.203125 45.292969 L 35.980469 45.28125 L 36.148438 45.195312 C 36.242188 45.144531 36.371094 45.054688 36.4375 44.992188 C 36.691406 44.75 36.859375 44.144531 36.804688 43.65625 C 36.738281 43.039062 36.523438 42.675781 36.09375 42.480469 L 35.90625 42.394531 L 32.164062 42.382812 L 28.425781 42.375 L 28.425781 43.835938 " fill-opacity="1" fill-rule="evenodd"/></svg>